# xmcd CD database file
#
# Track frame offsets:
#	187
#	26767
#	71732
#	110849
#	141712
#	172452
#
# Disc length: 2576 seconds
#
# Revision: 2
# Processed by: cddbd v1.5.1PL0 Copyright (c) Steve Scherf et al.
# Submitted via: CDex 1.51
#
DISCID=670a0e06
DTITLE=Vandross, Luther and Jackson, Janet - The Best Things In Life Are Free (Single)
DYEAR=1992
DGENRE=Pop
TTITLE0=The Best Things In Life Are Free (Classic 12" Mix)
TTITLE1=The Best Things In Life Are Free (CJ's U.K. 12" Mix)
TTITLE2=The Best Things In Life Are Free (Def Version)
TTITLE3=The Best Things In Life Are Free (CJ's Fxtc Dub)
TTITLE4=The Best Things In Life Are Free (CJ's Vinyl Zone Dub)
TTITLE5=The Best Things In Life Are Free (Album Version)
EXTD=YEAR: 1992
EXTT0=
EXTT1=
EXTT2=
EXTT3=
EXTT4=
EXTT5=
PLAYORDER=
